<svg xmlns="http://www.w3.org/2000/svg" viewBox="0 0 512 469.334"><g transform="translate(0 -21.333)"><path d="M117.333,149.333H352A10.667,10.667,0,0,0,352,128H117.333a10.667,10.667,0,0,0,0,21.334Z" fill="#d1d1d1"/><path d="M245.333,256h-128a10.667,10.667,0,1,0,0,21.334h128a10.667,10.667,0,1,0,0-21.334Z" fill="#d1d1d1"/><path d="M471.167,64c-.618,0-1.217.155-1.833.184V64a42.716,42.716,0,0,0-42.667-42.667h-384A42.716,42.716,0,0,0,0,64V480a10.671,10.671,0,0,0,6.583,9.854,10.541,10.541,0,0,0,4.083.813,10.664,10.664,0,0,0,7.542-3.125L121.75,384H426.667a42.716,42.716,0,0,0,42.667-42.667V164.411l30.708-30.7v-.01A40.828,40.828,0,0,0,471.167,64ZM448,341.333a21.355,21.355,0,0,1-21.333,21.333H117.333a10.66,10.66,0,0,0-7.542,3.125L21.333,454.25V64A21.355,21.355,0,0,1,42.666,42.667h384A21.354,21.354,0,0,1,448,64v7.286a40.123,40.123,0,0,0-5.708,4.672L326.232,192h-208.9a10.667,10.667,0,1,0,0,21.334H309.118l-10.243,51.24a10.668,10.668,0,0,0,10.459,12.76,10.89,10.89,0,0,0,2.083-.208l53.313-10.667a10.6,10.6,0,0,0,5.458-2.917L448,185.742Zm-90.6-95.156-34.458,6.9,6.9-34.5,96.828-96.828,27.587,27.587ZM484.958,118.625,469.333,134.25l-27.589-27.589,15.63-15.63a19.508,19.508,0,0,1,27.584,27.594Z" fill="#d1d1d1"/></g></svg>