<svg xmlns="http://www.w3.org/2000/svg" width="45" height="45" viewBox="0 0 400 400"><path data-name="Path 1" d="M199.995 0C89.716 0 0 89.72 0 200s89.716 200 199.995 200S400 310.279 400 200 310.277 0 199.995 0zm0 373.77C104.182 373.77 26.23 295.816 26.23 200S104.181 26.23 199.995 26.23 373.767 104.183 373.767 200s-77.955 173.77-173.772 173.77z" fill="#fff"/><path data-name="Path 2" d="M279.478 186.884h-66.363V120.52a13.115 13.115 0 0 0-26.23 0v66.368h-66.361a13.115 13.115 0 0 0 0 26.23h66.358v66.362a13.115 13.115 0 0 0 26.23 0v-66.365h66.367a13.116 13.116 0 0 0 0-26.231z" fill="#fff"/></svg>