<svg xmlns="http://www.w3.org/2000/svg" viewBox="0 0 475.083 438.536"><g fill="#d1d1d1"><path d="M469.658 115.06L360.029 5.427A17.584 17.584 0 0 0 347.175.003a19.9 19.9 0 0 0-7.132 1.425Q328.9 6.28 328.9 18.271v54.821h-45.679a466.514 466.514 0 0 0-56.1 3.14 302.624 302.624 0 0 0-45.537 8.708 185.343 185.343 0 0 0-35.547 13.846 152.046 152.046 0 0 0-26.98 17.559A111.319 111.319 0 0 0 99.5 137.474a131.1 131.1 0 0 0-13.422 23.267 134.456 134.456 0 0 0-7.992 25.125 196.926 196.926 0 0 0-4 25.693q-1 11.991-1 25.979a136.679 136.679 0 0 0 5 34.838 227.263 227.263 0 0 0 10.992 32.545q5.994 13.7 14.134 28.4t11.276 19.555q3.14 4.845 6 8.85a8.936 8.936 0 0 0 7.421 3.71 15.486 15.486 0 0 0 3.427-.568q6.565-3.143 5.708-9.7-12.846-95.931 21.128-135.047 32.838-37.4 125.051-37.4H328.9v54.816q0 12 11.136 16.851a19.839 19.839 0 0 0 7.132 1.424 16.986 16.986 0 0 0 12.854-5.421l109.637-109.642a17.919 17.919 0 0 0 0-25.689z"/><path d="M396 274.083q-5.437-2.293-9.993 2.283a60.177 60.177 0 0 1-15.42 10.564q-5.15 2.853-5.141 8.277v61.1a45.809 45.809 0 0 1-45.679 45.679H82.222a43.989 43.989 0 0 1-32.264-13.419 43.986 43.986 0 0 1-13.418-32.26V118.766a43.975 43.975 0 0 1 13.418-32.259 43.981 43.981 0 0 1 32.264-13.418H114.2a13.2 13.2 0 0 0 4.568-1.143 190.626 190.626 0 0 1 37.972-17.133q7.424-1.425 7.423-9.136a9.255 9.255 0 0 0-9.135-9.131h-72.8q-33.975 0-58.1 24.125T0 118.771v237.537q0 33.977 24.125 58.1t58.1 24.126h237.543q33.971 0 58.1-24.126t24.132-58.1v-73.946q-.006-5.709-6-8.279z"/></g></svg>